<svg width="267" height="24" viewBox="0 0 267 24" fill="none" xmlns="http://www.w3.org/2000/svg">
<path d="M92.9482 17.1567H96.6543V18H91.9116V10.1797H92.9482V17.1567ZM98.937 18H97.9058V10.1797H98.937V18ZM103.417 16.6304L105.651 10.1797H106.779L103.878 18H102.965L100.07 10.1797H101.193L103.417 16.6304ZM112.252 14.3853H108.863V17.1567H112.8V18H107.832V10.1797H112.746V11.0283H108.863V13.542H112.252V14.3853ZM119.68 14.8364H117.843V18H116.807V10.1797H119.396C120.276 10.1797 120.953 10.3802 121.426 10.7812C121.902 11.1823 122.14 11.766 122.14 12.5322C122.14 13.0192 122.008 13.4435 121.743 13.8052C121.481 14.1668 121.116 14.4372 120.647 14.6162L122.484 17.9355V18H121.377L119.68 14.8364ZM117.843 13.9932H119.428C119.94 13.9932 120.346 13.8607 120.647 13.5957C120.951 13.3307 121.104 12.9762 121.104 12.5322C121.104 12.0488 120.958 11.6782 120.668 11.4204C120.382 11.1626 119.967 11.0319 119.422 11.0283H117.843V13.9932ZM128.011 14.3853H124.622V17.1567H128.559V18H123.59V10.1797H128.505V11.0283H124.622V13.542H128.011V14.3853ZM135.595 15.5186C135.498 16.3457 135.192 16.9849 134.676 17.436C134.164 17.8836 133.482 18.1074 132.63 18.1074C131.706 18.1074 130.965 17.7762 130.406 17.1138C129.851 16.4513 129.574 15.5651 129.574 14.4551V13.7031C129.574 12.9762 129.703 12.3371 129.96 11.7856C130.222 11.2342 130.591 10.8117 131.067 10.5181C131.543 10.2209 132.095 10.0723 132.721 10.0723C133.552 10.0723 134.218 10.305 134.719 10.7705C135.221 11.2324 135.512 11.8734 135.595 12.6934H134.558C134.469 12.0703 134.273 11.6191 133.973 11.3398C133.675 11.0605 133.258 10.9209 132.721 10.9209C132.062 10.9209 131.545 11.1644 131.169 11.6514C130.797 12.1383 130.61 12.8312 130.61 13.73V14.4873C130.61 15.3359 130.788 16.0109 131.142 16.5122C131.497 17.0135 131.993 17.2642 132.63 17.2642C133.203 17.2642 133.641 17.1353 133.946 16.8774C134.254 16.616 134.458 16.1631 134.558 15.5186H135.595ZM143.023 14.3423C143.023 15.1086 142.894 15.7782 142.636 16.3511C142.378 16.9204 142.013 17.3555 141.541 17.6562C141.068 17.957 140.516 18.1074 139.886 18.1074C139.27 18.1074 138.724 17.957 138.248 17.6562C137.772 17.3519 137.401 16.9204 137.136 16.3618C136.875 15.7996 136.741 15.1497 136.733 14.4121V13.8481C136.733 13.0962 136.864 12.432 137.125 11.8555C137.387 11.279 137.756 10.8385 138.232 10.5342C138.712 10.2262 139.26 10.0723 139.875 10.0723C140.502 10.0723 141.054 10.2244 141.53 10.5288C142.01 10.8296 142.378 11.2682 142.636 11.8447C142.894 12.4176 143.023 13.0854 143.023 13.8481V14.3423ZM141.997 13.8374C141.997 12.91 141.811 12.1992 141.438 11.7051C141.066 11.2074 140.545 10.9585 139.875 10.9585C139.224 10.9585 138.71 11.2074 138.334 11.7051C137.962 12.1992 137.77 12.8867 137.759 13.7676V14.3423C137.759 15.241 137.947 15.9482 138.323 16.4639C138.703 16.9759 139.224 17.2319 139.886 17.2319C140.552 17.2319 141.068 16.9902 141.433 16.5068C141.798 16.0199 141.986 15.3234 141.997 14.4175V13.8374ZM147.438 14.8364H145.601V18H144.564V10.1797H147.153C148.034 10.1797 148.711 10.3802 149.184 10.7812C149.66 11.1823 149.898 11.766 149.898 12.5322C149.898 13.0192 149.765 13.4435 149.5 13.8052C149.239 14.1668 148.874 14.4372 148.405 14.6162L150.242 17.9355V18H149.135L147.438 14.8364ZM145.601 13.9932H147.186C147.698 13.9932 148.104 13.8607 148.405 13.5957C148.709 13.3307 148.861 12.9762 148.861 12.5322C148.861 12.0488 148.716 11.6782 148.426 11.4204C148.14 11.1626 147.724 11.0319 147.18 11.0283H145.601V13.9932ZM151.348 18V10.1797H153.556C154.236 10.1797 154.838 10.3301 155.36 10.6309C155.883 10.9316 156.286 11.3595 156.569 11.9146C156.855 12.4696 157 13.1069 157.004 13.8267V14.3262C157.004 15.0638 156.861 15.7101 156.574 16.2651C156.291 16.8201 155.885 17.2463 155.355 17.5435C154.829 17.8407 154.215 17.9928 153.513 18H151.348ZM152.379 11.0283V17.1567H153.464C154.259 17.1567 154.877 16.9097 155.317 16.4155C155.761 15.9214 155.983 15.2178 155.983 14.3047V13.8481C155.983 12.9601 155.774 12.2708 155.355 11.7803C154.94 11.2861 154.349 11.0355 153.583 11.0283H152.379ZM159.673 18H158.642V10.1797H159.673V18ZM167.574 18H166.538L162.601 11.9736V18H161.564V10.1797H162.601L166.548 16.2329V10.1797H167.574V18ZM175.18 16.9741C174.915 17.3537 174.544 17.6383 174.068 17.8281C173.595 18.0143 173.044 18.1074 172.414 18.1074C171.776 18.1074 171.21 17.9588 170.716 17.6616C170.222 17.3608 169.839 16.9347 169.567 16.3833C169.298 15.8319 169.16 15.1927 169.153 14.4658V13.7837C169.153 12.6056 169.427 11.6925 169.975 11.0444C170.527 10.3963 171.3 10.0723 172.295 10.0723C173.112 10.0723 173.769 10.2817 174.267 10.7007C174.764 11.116 175.069 11.7069 175.18 12.4731H174.148C173.955 11.4383 173.339 10.9209 172.301 10.9209C171.61 10.9209 171.085 11.1644 170.727 11.6514C170.373 12.1348 170.194 12.8366 170.19 13.7568V14.396C170.19 15.2733 170.39 15.9715 170.792 16.4907C171.193 17.0063 171.735 17.2642 172.419 17.2642C172.806 17.2642 173.144 17.2212 173.434 17.1353C173.724 17.0493 173.964 16.9043 174.154 16.7002V14.9438H172.344V14.106H175.18V16.9741Z" fill="black"/>
<rect x="47" y="1" width="156" height="22" rx="8" stroke="black"/>
<circle cx="62" cy="12" r="5" fill="#B3F695"/>
</svg>
